<svg xmlns="http://www.w3.org/2000/svg" xmlns:xlink="http://www.w3.org/1999/xlink" width="200" zoomAndPan="magnify" viewBox="0 0 150 149.999998" height="200" preserveAspectRatio="xMidYMid meet" version="1.0"><defs><clipPath id="id1"><path d="M 64 47.160156 L 149 47.160156 L 149 110 L 64 110 Z M 64 47.160156 " clip-rule="nonzero"/></clipPath></defs><path fill="#ffffff" d="M 146.558594 69.085938 C 146.652344 70.335938 146.671875 71.113281 146.578125 71.125 C 146.492188 71.132812 146.308594 70.375 146.09375 69.140625 C 145.875 67.90625 145.636719 66.203125 145.234375 64.355469 C 145.023438 63.4375 144.78125 62.574219 144.527344 61.804688 C 144.253906 61.035156 143.984375 60.359375 143.707031 59.804688 C 143.171875 58.710938 142.710938 58.0625 142.800781 58.003906 C 142.863281 57.960938 143.4375 58.480469 144.121094 59.582031 C 144.460938 60.121094 144.792969 60.808594 145.097656 61.59375 C 145.398438 62.382812 145.667969 63.269531 145.882812 64.214844 C 146.292969 66.101562 146.457031 67.835938 146.558594 69.085938 " fill-opacity="1" fill-rule="nonzero"/><path fill="#ffffff" d="M 141.984375 79.1875 C 144.390625 78.414062 145.546875 75.453125 144.59375 73.140625 C 143.683594 70.945312 141.230469 70.175781 139.019531 70.800781 C 136.867188 71.40625 134.699219 73.308594 135.6875 75.792969 C 136.648438 78.21875 139.425781 79.730469 141.984375 79.1875 Z M 145.855469 73.226562 C 146.53125 76.113281 145.367188 79.226562 142.464844 80.257812 C 142.414062 80.285156 142.363281 80.308594 142.296875 80.320312 C 142.234375 80.34375 142.175781 80.347656 142.121094 80.351562 C 139.054688 80.894531 135.015625 78.992188 134.429688 75.679688 C 133.886719 72.605469 136.078125 70.058594 139.109375 69.574219 C 141.921875 69.132812 145.128906 70.132812 145.855469 73.226562 " fill-opacity="1" fill-rule="nonzero"/><path fill="#ffffff" d="M 144.664062 80.425781 C 144.753906 80.460938 144.574219 81.113281 144.289062 82.167969 C 144.003906 83.222656 143.628906 84.691406 143.054688 86.28125 C 142.757812 87.078125 142.425781 87.820312 142.074219 88.46875 C 141.707031 89.113281 141.332031 89.671875 140.957031 90.097656 C 140.207031 90.960938 139.613281 91.300781 139.558594 91.242188 C 139.484375 91.171875 139.988281 90.679688 140.585938 89.808594 C 140.894531 89.375 141.210938 88.820312 141.53125 88.1875 C 141.839844 87.550781 142.148438 86.828125 142.433594 86.054688 C 142.996094 84.5 143.4375 83.050781 143.847656 82.023438 C 144.242188 80.996094 144.582031 80.390625 144.664062 80.425781 " fill-opacity="1" fill-rule="nonzero"/><g clip-path="url(#id1)"><path fill="#ffffff" d="M 70.703125 107.835938 C 70.359375 106.855469 70.039062 105.871094 69.691406 104.894531 C 68.296875 104.363281 66.996094 103.59375 65.515625 103.351562 C 65.84375 104.40625 66.296875 105.429688 66.742188 106.441406 C 68.027344 106.59375 69.371094 107.285156 70.703125 107.835938 Z M 75.359375 107.972656 C 75.597656 107.8125 75.828125 107.640625 76.046875 107.457031 C 75.597656 106.453125 74.582031 105.820312 74.03125 104.882812 C 73.328125 105.257812 72.5625 105.476562 71.738281 105.40625 C 71.273438 105.367188 70.832031 105.273438 70.398438 105.144531 C 70.746094 106.128906 71.066406 107.125 71.421875 108.113281 C 72.78125 108.597656 74.117188 108.796875 75.359375 107.972656 Z M 78.746094 104.367188 C 78.03125 103.773438 77.433594 103.070312 76.839844 102.359375 C 76.792969 102.417969 76.75 102.472656 76.703125 102.53125 C 76.101562 103.253906 75.367188 104.019531 74.527344 104.582031 C 75.007812 105.5 75.980469 106.136719 76.496094 107.0625 C 77.339844 106.277344 78.066406 105.335938 78.746094 104.367188 Z M 80.394531 101.941406 C 80.617188 101.621094 80.84375 101.285156 81.082031 100.941406 C 80.449219 100.320312 79.921875 99.605469 79.40625 98.886719 C 78.699219 99.90625 77.984375 100.921875 77.214844 101.898438 C 77.800781 102.59375 78.390625 103.289062 79.082031 103.882812 C 79.527344 103.226562 79.960938 102.5625 80.394531 101.941406 Z M 83.023438 98.257812 C 82.707031 97.375 82.285156 96.449219 81.574219 95.832031 C 80.949219 96.660156 80.355469 97.511719 79.765625 98.371094 C 80.28125 99.097656 80.796875 99.816406 81.425781 100.449219 C 81.925781 99.734375 82.457031 98.984375 83.023438 98.257812 Z M 85.527344 95.546875 C 85.109375 94.609375 84.605469 93.71875 84.140625 92.800781 C 83.339844 93.605469 82.613281 94.460938 81.925781 95.355469 C 82.644531 95.96875 83.101562 96.84375 83.449219 97.726562 C 84.09375 96.941406 84.78125 96.199219 85.527344 95.546875 Z M 89.164062 93.507812 C 88.726562 92.46875 88.289062 91.4375 87.773438 90.433594 C 86.601562 90.800781 85.53125 91.492188 84.585938 92.367188 C 84.585938 92.371094 84.585938 92.371094 84.585938 92.371094 C 85.046875 93.304688 85.5625 94.210938 85.992188 95.160156 C 86.957031 94.394531 88.007812 93.808594 89.164062 93.507812 Z M 92.359375 93.378906 C 92.15625 92.371094 91.933594 91.363281 91.519531 90.425781 C 91.300781 90.355469 91.070312 90.289062 90.824219 90.246094 C 89.96875 90.082031 89.144531 90.109375 88.351562 90.277344 C 88.867188 91.289062 89.308594 92.335938 89.742188 93.382812 C 89.75 93.382812 89.757812 93.382812 89.765625 93.378906 C 90.625 93.238281 91.503906 93.242188 92.359375 93.378906 Z M 95.289062 94.488281 C 95.121094 93.957031 94.972656 93.414062 94.9375 92.855469 C 94.128906 92.03125 93.320312 91.238281 92.265625 90.722656 C 92.597656 91.621094 92.796875 92.5625 92.984375 93.5 C 93.796875 93.699219 94.574219 94.03125 95.289062 94.488281 Z M 99.511719 98.296875 C 99.390625 97.484375 99.097656 96.695312 98.8125 95.914062 C 98.226562 95.605469 97.671875 95.269531 97.152344 94.894531 C 96.59375 94.496094 96.105469 94.046875 95.640625 93.578125 C 95.757812 94.09375 95.941406 94.59375 96.125 95.089844 C 97.015625 95.832031 97.75 96.683594 98.578125 97.507812 C 98.878906 97.796875 99.1875 98.058594 99.511719 98.296875 Z M 102.875 100.019531 C 103.027344 100.074219 103.183594 100.128906 103.339844 100.183594 C 102.972656 99.230469 102.667969 98.257812 102.242188 97.328125 C 101.335938 97.042969 100.429688 96.699219 99.566406 96.292969 C 99.851562 97.085938 100.097656 97.890625 100.144531 98.726562 C 100.992188 99.257812 101.914062 99.660156 102.875 100.019531 Z M 106.34375 81.140625 C 106.269531 79.703125 106.296875 78.265625 106.410156 76.84375 C 105.65625 76.625 104.914062 76.335938 104.140625 76.203125 C 104.078125 77.675781 104.132812 79.171875 104.289062 80.640625 C 104.964844 80.839844 105.65625 80.96875 106.34375 81.140625 Z M 107.035156 86.199219 C 106.703125 84.742188 106.488281 83.257812 106.382812 81.761719 C 105.710938 81.574219 105.035156 81.453125 104.367188 81.269531 C 104.5625 82.796875 104.875 84.285156 105.296875 85.675781 C 105.324219 85.777344 105.359375 85.878906 105.394531 85.976562 C 105.949219 85.960938 106.503906 86.046875 107.035156 86.199219 Z M 106.519531 75.730469 C 106.664062 74.476562 106.875 73.203125 107.136719 71.929688 C 106.363281 71.660156 105.542969 71.578125 104.734375 71.457031 C 104.441406 72.792969 104.25 74.191406 104.167969 75.617188 C 104.953125 75.753906 105.699219 76.023438 106.464844 76.246094 C 106.484375 76.074219 106.5 75.902344 106.519531 75.730469 Z M 107.960938 101.4375 C 107.605469 100.339844 107.105469 99.289062 106.761719 98.183594 C 105.859375 98.148438 104.964844 98.058594 104.078125 97.84375 C 103.714844 97.753906 103.34375 97.65625 102.976562 97.546875 C 103.367188 98.496094 103.679688 99.480469 104.066406 100.433594 C 105.324219 100.851562 106.636719 101.210938 107.960938 101.4375 Z M 107.253906 71.355469 C 107.546875 70.050781 107.902344 68.746094 108.316406 67.464844 C 107.601562 67.28125 106.875 67.105469 106.160156 66.894531 C 105.757812 67.925781 105.40625 68.964844 105.101562 70.007812 C 105.019531 70.292969 104.941406 70.589844 104.867188 70.882812 C 105.671875 71.003906 106.488281 71.085938 107.253906 71.355469 Z M 108.507812 66.90625 C 108.851562 65.894531 109.238281 64.902344 109.667969 63.925781 C 109.019531 63.742188 108.363281 63.574219 107.730469 63.34375 C 107.238281 64.328125 106.785156 65.332031 106.378906 66.347656 C 107.078125 66.550781 107.796875 66.726562 108.507812 66.90625 Z M 109.382812 92.664062 C 109.464844 92.746094 109.554688 92.820312 109.644531 92.902344 C 108.546875 91.023438 107.742188 88.984375 107.199219 86.867188 C 106.675781 86.691406 106.140625 86.582031 105.589844 86.566406 C 106.398438 88.855469 107.589844 90.964844 109.382812 92.664062 Z M 111.925781 59.660156 C 111.25 59.574219 110.34375 59.550781 109.890625 59.542969 C 109.210938 60.597656 108.582031 61.695312 108 62.816406 C 108.628906 63.035156 109.273438 63.195312 109.914062 63.382812 C 110.503906 62.097656 111.175781 60.851562 111.925781 59.660156 Z M 112.464844 101.605469 C 112.539062 101.59375 112.613281 101.585938 112.6875 101.574219 C 112.347656 100.378906 111.953125 99.203125 111.335938 98.117188 C 110.019531 98.128906 108.695312 98.210938 107.386719 98.199219 C 107.757812 99.328125 108.273438 100.402344 108.613281 101.539062 C 109.898438 101.722656 111.199219 101.769531 112.464844 101.605469 Z M 114.367188 56.335938 C 113.746094 56.183594 113.113281 56.097656 112.484375 55.972656 C 111.707031 56.921875 110.96875 57.914062 110.273438 58.957031 C 111.027344 58.960938 111.605469 59.003906 112.265625 59.128906 C 112.910156 58.152344 113.609375 57.214844 114.367188 56.335938 Z M 113.273438 101.484375 C 114.019531 101.355469 114.761719 101.183594 115.503906 101.03125 C 114.9375 100.011719 114.285156 99.066406 113.5 98.199219 C 113.347656 98.183594 113.191406 98.171875 113.039062 98.160156 C 112.695312 98.15625 112.351562 98.167969 112.011719 98.121094 C 112.574219 99.1875 112.945312 100.324219 113.273438 101.484375 Z M 117.371094 53.398438 C 117.007812 53.277344 116.644531 53.167969 116.265625 53.085938 C 115.011719 53.75 113.789062 54.527344 112.921875 55.460938 C 113.550781 55.574219 114.183594 55.675781 114.804688 55.84375 C 115.597656 54.964844 116.453125 54.148438 117.371094 53.398438 Z M 118.074219 100.664062 C 118.238281 100.65625 118.398438 100.648438 118.558594 100.640625 C 117.195312 100.183594 115.894531 99.527344 114.695312 98.644531 C 114.660156 98.621094 114.625 98.597656 114.582031 98.574219 C 115.160156 99.308594 115.664062 100.089844 116.113281 100.914062 C 116.765625 100.792969 117.417969 100.695312 118.074219 100.664062 Z M 120.667969 51.167969 C 120.679688 51.160156 120.691406 51.15625 120.703125 51.148438 C 120.683594 51.136719 120.667969 51.121094 120.65625 51.105469 C 120.046875 51.3125 119.441406 51.546875 118.859375 51.820312 C 118.300781 52.082031 117.683594 52.367188 117.058594 52.679688 C 117.308594 52.75 117.558594 52.832031 117.8125 52.921875 C 117.847656 52.933594 117.878906 52.957031 117.90625 52.976562 C 118.777344 52.3125 119.6875 51.703125 120.667969 51.167969 Z M 127.796875 48.550781 C 127.539062 48.523438 127.273438 48.5 127.015625 48.496094 C 125.207031 48.457031 123.386719 48.679688 121.636719 49.15625 C 118.398438 50.039062 115.214844 51.492188 112.652344 53.707031 C 107.730469 57.976562 104.527344 64.261719 103.210938 70.582031 C 101.78125 77.433594 101.914062 84.933594 105.84375 90.996094 C 106.761719 92.410156 107.8125 93.785156 109.117188 94.882812 C 110.019531 95.640625 111.394531 97.03125 112.683594 96.890625 C 111.9375 96.136719 111.265625 95.332031 110.660156 94.480469 C 109.402344 93.398438 108.058594 92.371094 107.152344 91 C 105.746094 88.871094 104.765625 86.546875 104.296875 84.027344 C 103.800781 81.363281 103.53125 78.632812 103.628906 75.921875 C 103.605469 75.847656 103.609375 75.765625 103.636719 75.699219 C 103.703125 74.160156 103.890625 72.632812 104.222656 71.128906 C 104.230469 71.101562 104.238281 71.074219 104.246094 71.046875 C 104.4375 70.207031 104.671875 69.371094 104.960938 68.554688 C 105.84375 66.058594 106.882812 63.613281 108.203125 61.316406 C 109.4375 59.175781 110.808594 56.492188 112.714844 54.855469 C 115.976562 52.070312 119.902344 50.667969 123.957031 49.65625 C 125.210938 49.1875 126.5 48.808594 127.796875 48.550781 Z M 131.003906 98.957031 C 147.664062 92.324219 151.6875 69.042969 142.867188 54.882812 C 140.421875 51.234375 136.675781 49.503906 132.636719 49.277344 C 132.605469 49.285156 132.574219 49.289062 132.542969 49.289062 C 132.332031 49.285156 132.117188 49.273438 131.910156 49.25 C 130.183594 49.238281 128.414062 49.484375 126.683594 49.96875 C 120.578125 51.675781 115.765625 55.550781 112.558594 60.988281 C 107.589844 69.410156 105.363281 81.121094 109.636719 90.292969 C 110.839844 92.875 112.535156 95.394531 114.761719 97.234375 C 114.804688 97.261719 114.839844 97.289062 114.871094 97.324219 C 114.996094 97.425781 115.125 97.527344 115.261719 97.625 C 116.484375 98.519531 117.582031 99.105469 119.101562 99.492188 C 119.246094 99.527344 119.347656 99.601562 119.414062 99.695312 C 123.175781 100.769531 127.390625 100.386719 131.003906 98.957031 Z M 143.890625 54.292969 C 152.472656 68.078125 149.414062 89.882812 134.679688 98.460938 C 131.367188 100.382812 127.390625 101.539062 123.515625 101.46875 C 123.46875 101.492188 123.414062 101.503906 123.359375 101.511719 C 121.203125 101.789062 118.96875 101.585938 116.824219 101.988281 C 115.171875 102.296875 113.453125 102.847656 111.757812 102.828125 C 108.792969 102.796875 105.910156 102.378906 103.121094 101.355469 C 100.410156 100.359375 98.621094 99.132812 96.609375 97.097656 C 94.535156 95.011719 91.472656 93.542969 88.601562 94.996094 C 84.234375 97.207031 81.839844 102.136719 79 105.898438 C 77.683594 107.640625 76.246094 109.308594 73.984375 109.675781 C 71.242188 110.121094 69.03125 107.667969 66.355469 107.582031 C 66.128906 107.574219 65.964844 107.457031 65.875 107.304688 C 65.839844 107.265625 65.808594 107.21875 65.78125 107.160156 C 65.160156 105.761719 64.507812 104.335938 64.152344 102.839844 C 64.082031 102.542969 64.226562 102.316406 64.433594 102.199219 C 64.523438 102.132812 64.640625 102.09375 64.78125 102.097656 C 65.863281 102.132812 66.863281 102.351562 67.847656 102.816406 C 69.242188 103.480469 70.964844 104.621094 72.59375 104.15625 C 75.113281 103.425781 76.625 100.773438 78.046875 98.746094 C 80.238281 95.617188 82.511719 91.660156 86.054688 89.871094 C 90.082031 87.828125 93.78125 89.652344 96.609375 92.757812 C 98.714844 95.070312 102.542969 96.683594 105.671875 96.898438 C 107.066406 96.996094 108.457031 96.957031 109.851562 96.941406 C 107.691406 95.339844 105.824219 93.390625 104.492188 91.03125 C 100.898438 84.675781 100.476562 77.304688 102.074219 70.273438 C 103.597656 63.546875 106.894531 56.886719 112.324219 52.464844 C 114.894531 50.375 118.097656 48.800781 121.324219 48.019531 C 123.109375 47.589844 125.164062 47.132812 127.015625 47.320312 C 128.871094 47.515625 130.664062 48.09375 132.542969 48.113281 C 132.644531 48.113281 132.730469 48.136719 132.804688 48.175781 C 137.121094 48.414062 141.164062 50.222656 143.890625 54.292969 " fill-opacity="1" fill-rule="nonzero"/></g><path fill="#ffffff" d="M 137.179688 67.421875 C 139.222656 65.953125 140.777344 63.238281 140.402344 60.671875 C 139.828125 58.109375 137.773438 56.21875 135.113281 57.609375 C 132.882812 58.765625 131.53125 61.046875 131.433594 63.554688 C 131.367188 65.269531 131.777344 67.128906 133.546875 67.871094 C 134.78125 68.394531 136.097656 68.203125 137.179688 67.421875 Z M 141.550781 60.507812 C 141.96875 63.90625 139.851562 67.65625 136.683594 69.003906 C 133.320312 70.4375 130.109375 67.429688 130.238281 64.054688 C 130.359375 60.808594 131.949219 57.28125 135.308594 56.265625 C 138.480469 55.304688 140.773438 57.21875 141.5 60.230469 C 141.515625 60.265625 141.527344 60.3125 141.535156 60.359375 C 141.546875 60.414062 141.550781 60.460938 141.550781 60.507812 " fill-opacity="1" fill-rule="nonzero"/><path fill="#ffffff" d="M 137.710938 88.691406 C 138.226562 86.5 137.394531 84.546875 135.105469 83.917969 C 133.441406 83.46875 131.246094 83.53125 129.886719 84.742188 C 127.871094 86.535156 128.425781 89.878906 129.933594 91.863281 C 132.855469 95.703125 136.601562 91.964844 137.710938 88.691406 Z M 135.417969 82.789062 C 138.253906 83.71875 139.484375 86 138.878906 88.847656 C 138.871094 88.898438 138.863281 88.949219 138.84375 89 C 138.832031 89.050781 138.816406 89.09375 138.796875 89.136719 C 137.769531 91.976562 134.144531 96.640625 130.699219 94.203125 C 127.953125 92.257812 126.195312 87.667969 128.324219 84.683594 C 129.8125 82.597656 133.085938 82.023438 135.417969 82.789062 " fill-opacity="1" fill-rule="nonzero"/><path fill="#ffffff" d="M 137.019531 52.835938 C 137.355469 53.105469 137.527344 53.269531 137.5 53.304688 C 137.46875 53.335938 137.25 53.25 136.878906 53.050781 C 136.515625 52.847656 135.976562 52.585938 135.296875 52.292969 C 134.949219 52.164062 134.582031 51.996094 134.164062 51.878906 C 133.957031 51.820312 133.746094 51.746094 133.523438 51.683594 C 133.300781 51.636719 133.066406 51.582031 132.828125 51.53125 C 131.878906 51.34375 130.816406 51.242188 129.695312 51.292969 C 127.449219 51.40625 125.480469 52.058594 124.105469 52.601562 C 122.726562 53.152344 121.890625 53.59375 121.835938 53.5 C 121.808594 53.425781 122.542969 52.859375 123.910156 52.171875 C 125.269531 51.507812 127.300781 50.753906 129.664062 50.632812 C 130.84375 50.578125 131.96875 50.707031 132.964844 50.9375 C 133.210938 51.003906 133.449219 51.066406 133.679688 51.128906 C 133.914062 51.199219 134.132812 51.285156 134.34375 51.363281 C 134.777344 51.503906 135.144531 51.710938 135.496094 51.867188 C 136.171875 52.226562 136.695312 52.5625 137.019531 52.835938 " fill-opacity="1" fill-rule="nonzero"/><path fill="#ffffff" d="M 131.488281 75.726562 C 131.5 75.492188 131.496094 74.824219 131.15625 74.773438 C 130.773438 74.71875 130.382812 75.550781 130.292969 75.816406 C 130.21875 76.027344 130.125 76.300781 130.210938 76.523438 C 130.292969 76.726562 130.5625 76.707031 130.753906 76.691406 C 131.226562 76.597656 131.46875 76.1875 131.488281 75.726562 Z M 131.1875 74.191406 C 131.871094 74.21875 132.105469 75.105469 132.078125 75.65625 C 132.042969 76.386719 131.683594 77.125 130.902344 77.257812 C 130.882812 77.261719 130.871094 77.257812 130.855469 77.257812 C 130.84375 77.261719 130.835938 77.265625 130.824219 77.269531 C 129.839844 77.375 129.386719 76.625 129.699219 75.738281 C 129.910156 75.125 130.414062 74.164062 131.1875 74.191406 " fill-opacity="1" fill-rule="nonzero"/><path fill="#ffffff" d="M 126.597656 81.523438 C 132.492188 83.21875 135.699219 72.964844 130.761719 70.148438 C 124.5625 66.605469 121.148438 78.992188 126.597656 81.523438 Z M 130.761719 69.195312 C 136.632812 72.550781 133.574219 84.421875 126.355469 82.3125 C 126.328125 82.304688 126.308594 82.289062 126.289062 82.277344 C 126.273438 82.277344 126.265625 82.277344 126.253906 82.269531 C 123.207031 80.929688 122.609375 76.664062 123.34375 73.761719 C 124.09375 70.808594 127.367188 67.261719 130.761719 69.195312 " fill-opacity="1" fill-rule="nonzero"/><path fill="#ffffff" d="M 127.898438 72.503906 C 128.707031 73.328125 129.898438 72.011719 129.386719 71.152344 C 128.761719 70.289062 127.171875 71.746094 127.898438 72.503906 Z M 129.898438 70.855469 C 130.335938 71.585938 130.046875 72.515625 129.394531 73.023438 C 128.796875 73.496094 127.832031 73.457031 127.382812 72.789062 C 126.417969 71.355469 128.679688 69.457031 129.8125 70.761719 C 129.84375 70.78125 129.875 70.808594 129.898438 70.855469 " fill-opacity="1" fill-rule="nonzero"/><path fill="#ffffff" d="M 127.914062 80.449219 C 128.992188 80.472656 129.203125 78.195312 128.320312 78.304688 C 127.8125 78.363281 127.472656 78.804688 127.398438 79.28125 C 127.320312 79.75 127.386719 80.328125 127.914062 80.449219 Z M 128.46875 77.714844 C 130.164062 77.792969 129.558594 81.160156 127.878906 81.039062 C 127.859375 81.039062 127.851562 81.03125 127.832031 81.023438 C 127.824219 81.023438 127.8125 81.03125 127.796875 81.03125 C 126.871094 80.867188 126.660156 79.824219 126.84375 79.039062 C 127.023438 78.304688 127.675781 77.675781 128.46875 77.714844 " fill-opacity="1" fill-rule="nonzero"/><path fill="#ffffff" d="M 127.386719 97.023438 C 127.398438 97.070312 127.167969 97.164062 126.726562 97.316406 C 126.289062 97.480469 125.636719 97.613281 124.8125 97.722656 C 124.402344 97.757812 123.941406 97.816406 123.460938 97.824219 C 123.222656 97.835938 122.976562 97.84375 122.71875 97.851562 C 122.457031 97.847656 122.1875 97.839844 121.910156 97.835938 C 120.8125 97.785156 119.59375 97.589844 118.390625 97.117188 C 117.1875 96.648438 116.164062 95.933594 115.355469 95.1875 C 114.535156 94.441406 113.925781 93.65625 113.449219 92.984375 C 112.515625 91.621094 112.101562 90.699219 112.167969 90.65625 C 112.257812 90.601562 112.820312 91.445312 113.820312 92.703125 C 114.335938 93.328125 114.964844 94.046875 115.757812 94.734375 C 116.554688 95.417969 117.511719 96.0625 118.632812 96.503906 C 120.882812 97.390625 123.175781 97.289062 124.773438 97.253906 C 125.574219 97.207031 126.222656 97.144531 126.667969 97.0625 C 127.117188 96.996094 127.375 96.976562 127.386719 97.023438 " fill-opacity="1" fill-rule="nonzero"/><path fill="#ffffff" d="M 125.539062 76.40625 C 126.113281 76.691406 126.503906 75.980469 126.5 75.496094 C 126.5 75.058594 126.328125 74.335938 125.800781 74.238281 C 125.1875 74.125 124.902344 74.757812 124.886719 75.261719 C 124.902344 75.679688 125.144531 76.210938 125.539062 76.40625 Z M 125.742188 73.632812 C 126.613281 73.65625 127.144531 74.730469 127.089844 75.496094 C 127.035156 76.222656 126.542969 77.226562 125.648438 77.054688 C 124.839844 76.902344 124.335938 76.03125 124.296875 75.261719 C 124.332031 74.429688 124.828125 73.613281 125.742188 73.632812 " fill-opacity="1" fill-rule="nonzero"/><path fill="#ffffff" d="M 124.390625 90.445312 C 125.121094 88.441406 124.910156 85.390625 123.234375 83.878906 C 120.394531 81.304688 115.996094 84.984375 115.847656 88.15625 C 115.742188 90.414062 116.730469 93.003906 119.207031 93.523438 C 121.617188 94.027344 123.378906 92.480469 124.390625 90.445312 Z M 123.359375 82.46875 C 125.828125 84.292969 126.566406 88.03125 125.5 90.832031 C 125.492188 90.851562 125.480469 90.867188 125.472656 90.886719 C 125.460938 90.914062 125.453125 90.941406 125.441406 90.96875 C 124.09375 93.746094 121.347656 95.585938 118.246094 94.441406 C 115.429688 93.40625 113.96875 89.78125 114.847656 86.988281 C 115.792969 83.992188 120.0625 80.042969 123.359375 82.46875 " fill-opacity="1" fill-rule="nonzero"/><path fill="#ffffff" d="M 121.390625 68.75 C 126.597656 68.722656 128.804688 60.5625 124.226562 57.957031 C 121.0625 56.15625 116.527344 58.347656 116.460938 62.128906 C 116.402344 65.285156 117.910156 68.449219 121.390625 68.75 Z M 123.757812 56.417969 C 130.566406 58.574219 128.265625 69.695312 121.558594 69.917969 C 121.507812 69.925781 121.453125 69.933594 121.390625 69.925781 C 121.328125 69.925781 121.273438 69.917969 121.222656 69.902344 C 117.070312 69.445312 115 65.613281 115.316406 61.671875 C 115.640625 57.675781 120.097656 55.257812 123.757812 56.417969 " fill-opacity="1" fill-rule="nonzero"/><path fill="#ffffff" d="M 120.976562 77.597656 C 122.394531 73.261719 116.425781 69.324219 112.816406 72.101562 C 110.089844 74.183594 109.601562 80.792969 114.207031 80.691406 C 116.804688 80.636719 119.753906 80.175781 120.976562 77.597656 Z M 111.015625 72.246094 C 114.949219 67.273438 124.222656 71.761719 122.09375 77.972656 C 122.085938 78.007812 122.066406 78.039062 122.050781 78.074219 C 122.046875 78.082031 122.039062 78.101562 122.039062 78.109375 C 121.300781 79.742188 119.886719 80.839844 118.164062 81.324219 C 116.617188 81.757812 114.152344 82.332031 112.597656 81.679688 C 108.953125 80.15625 108.761719 75.089844 111.015625 72.246094 " fill-opacity="1" fill-rule="nonzero"/><path fill="#ffffff" d="M 113.792969 62.015625 C 113.867188 62.089844 113.546875 62.515625 113.15625 63.253906 C 112.953125 63.621094 112.746094 64.078125 112.542969 64.589844 C 112.328125 65.105469 112.164062 65.679688 111.945312 66.320312 C 111.484375 67.578125 110.976562 68.625 110.707031 69.425781 C 110.425781 70.1875 110.359375 70.746094 110.257812 70.730469 C 110.179688 70.726562 110.070312 70.199219 110.253906 69.300781 C 110.417969 68.433594 110.878906 67.300781 111.320312 66.101562 C 111.53125 65.5 111.726562 64.875 111.980469 64.351562 C 112.230469 63.824219 112.488281 63.363281 112.753906 63.003906 C 113.28125 62.289062 113.734375 61.960938 113.792969 62.015625 " fill-opacity="1" fill-rule="nonzero"/><path fill="#ffffff" d="M 110.164062 87.175781 C 110.335938 87.785156 110.339844 88.191406 110.253906 88.210938 C 110.164062 88.230469 110 87.886719 109.726562 87.339844 C 109.589844 87.058594 109.425781 86.726562 109.273438 86.328125 C 109.238281 86.226562 109.207031 86.125 109.171875 86.019531 C 109.136719 85.902344 109.109375 85.785156 109.078125 85.667969 C 109.042969 85.539062 109.039062 85.4375 109.015625 85.320312 C 109.007812 85.257812 109 85.226562 108.996094 85.132812 L 108.988281 84.953125 C 108.917969 83.015625 109.152344 81.507812 109.320312 81.5 C 109.519531 81.5 109.582031 83.0625 109.648438 84.90625 L 109.652344 85.078125 C 109.652344 85.097656 109.664062 85.183594 109.671875 85.230469 C 109.6875 85.34375 109.695312 85.472656 109.71875 85.558594 C 109.738281 85.660156 109.757812 85.757812 109.777344 85.851562 C 109.804688 85.949219 109.832031 86.046875 109.855469 86.140625 C 109.96875 86.519531 110.082031 86.867188 110.164062 87.175781 " fill-opacity="1" fill-rule="nonzero"/><path stroke-linecap="butt" transform="matrix(1.57713, 0, 0, 1.57713, 0.00000125, 36.412888)" fill="none" stroke-linejoin="miter" d="M 6.357968 43.998782 L 18.179778 17.184847 L 19.965558 20.159494 L 4.12141 20.159494 L 7.115872 16.959457 L 7.115872 24.947166 L 1.087318 24.947166 L 1.087318 14.601535 L 24.649204 14.601535 L 24.649204 18.99044 L 13.719045 43.998782 Z M 6.357968 43.998782 " stroke="#ffffff" stroke-width="1.575" stroke-opacity="1" stroke-miterlimit="4"/><path stroke-linecap="butt" transform="matrix(0.642413, 0, 0, 0.642413, 42.002005, 44.46197)" fill="none" stroke-linejoin="miter" d="M 16.870516 43.997543 L 16.870516 39.601276 L 16.469197 38.60406 L 16.469197 30.723615 C 16.469197 29.318999 16.043556 28.230573 15.186193 27.458338 C 14.32883 26.680022 13.015422 26.290865 11.23989 26.290865 C 10.048094 26.290865 8.87454 26.479363 7.713147 26.85636 C 6.551755 27.227276 5.554538 27.731965 4.727578 28.370427 L 2.386551 23.822145 C 3.633072 22.922218 5.122816 22.247272 6.849704 21.779067 C 8.576591 21.316942 10.339962 21.079799 12.139817 21.079799 C 15.593592 21.079799 18.269052 21.894598 20.172277 23.524196 C 22.069421 25.141633 23.017993 27.665078 23.017993 31.08845 L 23.017993 43.997543 Z M 9.999449 44.319814 C 8.242159 44.319814 6.728092 44.021865 5.463329 43.425968 C 4.204647 42.83007 3.243914 42.015271 2.575049 40.987651 C 1.912265 39.94787 1.577832 38.774316 1.577832 37.47915 C 1.577832 36.153582 1.906184 34.986109 2.550726 33.97065 C 3.20743 32.961272 4.253292 32.164715 5.68223 31.593139 C 7.111169 31.021564 8.965749 30.729695 11.258132 30.729695 L 17.247513 30.729695 L 17.247513 34.548306 L 11.987802 34.548306 C 10.443332 34.548306 9.38531 34.79761 8.807654 35.296219 C 8.236078 35.794827 7.94421 36.433289 7.94421 37.211605 C 7.94421 38.032484 8.272562 38.689188 8.923185 39.193877 C 9.579889 39.680324 10.473735 39.929628 11.616886 39.929628 C 12.717473 39.929628 13.708609 39.674244 14.578134 39.157393 C 15.453739 38.646624 16.08612 37.880469 16.469197 36.85285 L 17.460333 39.899225 C 16.998209 41.334245 16.134765 42.428751 14.870002 43.188825 C 13.61132 43.942818 11.987802 44.319814 9.999449 44.319814 Z M 28.946568 43.997543 L 28.946568 21.408151 L 35.191334 21.408151 L 35.191334 27.798851 L 34.333971 25.950352 C 34.996755 24.345076 36.066939 23.135038 37.550603 22.314159 C 39.034267 21.493279 40.846283 21.079799 42.986651 21.079799 L 42.986651 27.129986 C 42.700863 27.093503 42.439398 27.0631 42.208335 27.038777 C 41.983353 27.020536 41.752291 27.008374 41.521228 27.008374 C 39.703132 27.008374 38.24379 27.525224 37.143204 28.558925 C 36.048697 29.592625 35.501444 31.179659 35.501444 33.338269 L 35.501444 43.997543 Z M 56.290982 44.319814 C 53.615522 44.319814 51.542041 43.644869 50.064458 42.294978 C 48.586874 40.951167 47.851123 38.932412 47.851123 36.23871 L 47.851123 16.397745 L 54.405999 16.397745 L 54.405999 36.123179 C 54.405999 37.083912 54.649222 37.825744 55.14175 38.348675 C 55.640359 38.877686 56.321385 39.139152 57.190909 39.139152 C 58.236771 39.139152 59.124537 38.865525 59.860288 38.306111 L 61.599337 42.921279 C 60.936553 43.395565 60.139995 43.748239 59.203584 43.979301 C 58.267174 44.204283 57.294279 44.319814 56.290982 44.319814 Z M 44.342622 26.935407 L 44.342622 21.900679 L 60.024464 21.900679 L 60.024464 26.935407 Z M 76.508944 44.319814 C 73.930774 44.319814 71.674875 43.821206 69.741247 42.817909 C 67.807619 41.814611 66.305714 40.434317 65.24161 38.677027 C 64.177507 36.919736 63.648496 34.925303 63.648496 32.687645 C 63.648496 30.431747 64.171427 28.431232 65.211208 26.680022 C 66.257069 24.928813 67.686008 23.56068 69.504104 22.569544 C 71.328281 21.578407 73.389601 21.079799 75.675903 21.079799 C 77.901399 21.079799 79.895833 21.554085 81.665284 22.496576 C 83.440817 23.432987 84.845433 24.776798 85.879133 26.528008 C 86.918914 28.273137 87.441845 30.358779 87.441845 32.791016 C 87.441845 33.0464 87.429684 33.332188 87.405361 33.654459 C 87.38712 33.976731 87.362797 34.268599 87.338475 34.536145 L 68.969012 34.536145 L 68.969012 30.723615 L 83.872539 30.723615 L 81.336932 31.866766 C 81.349094 30.699293 81.118031 29.677753 80.631584 28.802148 C 80.151217 27.926543 79.494514 27.245517 78.649312 26.75299 C 77.816271 26.254381 76.837296 26.005077 75.718467 26.005077 C 74.593558 26.005077 73.602422 26.254381 72.745059 26.75299 C 71.899857 27.245517 71.237072 27.932624 70.768867 28.81431 C 70.300661 29.695995 70.069599 30.735776 70.069599 31.939733 L 70.069599 32.967353 C 70.069599 34.195632 70.337145 35.277977 70.878317 36.208307 C 71.425571 37.138637 72.197806 37.850066 73.195022 38.348675 C 74.192239 38.847283 75.365793 39.096587 76.703523 39.096587 C 77.90748 39.096587 78.959422 38.92025 79.859349 38.555415 C 80.771438 38.19058 81.610559 37.637246 82.382794 36.895414 L 85.873053 40.677541 C 84.81503 41.863256 83.507703 42.763183 81.944991 43.383403 C 80.38228 44.009704 78.570264 44.319814 76.508944 44.319814 Z M 76.508944 44.319814 " stroke="#ffffff" stroke-width="1.575" stroke-opacity="1" stroke-miterlimit="4"/></svg>