<svg xmlns="http://www.w3.org/2000/svg" xmlns:xlink="http://www.w3.org/1999/xlink" width="200" zoomAndPan="magnify" viewBox="0 0 150 149.999998" height="200" preserveAspectRatio="xMidYMid meet" version="1.0"><defs><clipPath id="id1"><path d="M 0 24.082031 L 149 24.082031 L 149 135 L 0 135 Z M 0 24.082031 " clip-rule="nonzero"/></clipPath></defs><path fill="#000000" d="M 144.824219 62.710938 C 144.988281 64.917969 145.023438 66.285156 144.859375 66.304688 C 144.710938 66.324219 144.386719 64.988281 144.015625 62.8125 C 143.628906 60.636719 143.214844 57.632812 142.503906 54.378906 C 142.136719 52.757812 141.714844 51.242188 141.265625 49.882812 C 140.789062 48.53125 140.3125 47.335938 139.828125 46.359375 C 138.886719 44.433594 138.074219 43.289062 138.234375 43.1875 C 138.34375 43.109375 139.355469 44.03125 140.550781 45.96875 C 141.148438 46.921875 141.726562 48.132812 142.269531 49.515625 C 142.792969 50.902344 143.265625 52.46875 143.644531 54.132812 C 144.363281 57.457031 144.652344 60.511719 144.824219 62.710938 " fill-opacity="1" fill-rule="nonzero"/><path fill="#000000" d="M 136.804688 80.515625 C 141.027344 79.148438 143.050781 73.929688 141.378906 69.855469 C 139.785156 65.988281 135.480469 64.636719 131.605469 65.734375 C 127.828125 66.800781 124.023438 70.152344 125.757812 74.53125 C 127.445312 78.804688 132.320312 81.472656 136.804688 80.515625 Z M 143.59375 70.007812 C 144.777344 75.097656 142.738281 80.578125 137.644531 82.394531 C 137.558594 82.449219 137.46875 82.488281 137.351562 82.507812 C 137.242188 82.550781 137.140625 82.554688 137.042969 82.566406 C 131.667969 83.523438 124.578125 80.167969 123.550781 74.332031 C 122.59375 68.917969 126.441406 64.429688 131.765625 63.578125 C 136.695312 62.792969 142.316406 64.558594 143.59375 70.007812 " fill-opacity="1" fill-rule="nonzero"/><path fill="#000000" d="M 141.507812 82.695312 C 141.664062 82.757812 141.347656 83.910156 140.851562 85.765625 C 140.347656 87.621094 139.691406 90.207031 138.683594 93.011719 C 138.164062 94.414062 137.578125 95.722656 136.960938 96.867188 C 136.320312 98 135.65625 98.984375 135 99.734375 C 133.683594 101.257812 132.640625 101.851562 132.550781 101.753906 C 132.414062 101.628906 133.304688 100.757812 134.351562 99.226562 C 134.890625 98.464844 135.445312 97.480469 136.011719 96.371094 C 136.550781 95.25 137.089844 93.976562 137.59375 92.609375 C 138.578125 89.875 139.355469 87.316406 140.074219 85.507812 C 140.769531 83.695312 141.363281 82.632812 141.507812 82.695312 " fill-opacity="1" fill-rule="nonzero"/><g clip-path="url(#id1)"><path fill="#000000" d="M 11.757812 130.984375 C 11.160156 129.257812 10.59375 127.527344 9.984375 125.808594 C 7.539062 124.871094 5.253906 123.511719 2.660156 123.085938 C 3.234375 124.949219 4.027344 126.75 4.8125 128.53125 C 7.066406 128.800781 9.421875 130.019531 11.757812 130.984375 Z M 19.925781 131.226562 C 20.347656 130.945312 20.746094 130.640625 21.132812 130.316406 C 20.347656 128.546875 18.5625 127.4375 17.59375 125.785156 C 16.363281 126.445312 15.019531 126.832031 13.574219 126.707031 C 12.761719 126.640625 11.984375 126.476562 11.226562 126.242188 C 11.835938 127.984375 12.398438 129.738281 13.015625 131.476562 C 15.40625 132.332031 17.75 132.683594 19.925781 131.226562 Z M 25.867188 124.878906 C 24.617188 123.832031 23.566406 122.589844 22.523438 121.339844 C 22.445312 121.441406 22.363281 121.539062 22.28125 121.640625 C 21.230469 122.914062 19.941406 124.265625 18.464844 125.257812 C 19.3125 126.871094 21.015625 127.996094 21.925781 129.625 C 23.402344 128.238281 24.675781 126.582031 25.867188 124.878906 Z M 28.757812 120.601562 C 29.148438 120.035156 29.546875 119.445312 29.96875 118.84375 C 28.851562 117.746094 27.929688 116.488281 27.027344 115.21875 C 25.789062 117.019531 24.535156 118.808594 23.183594 120.523438 C 24.210938 121.753906 25.242188 122.976562 26.453125 124.023438 C 27.242188 122.863281 28 121.699219 28.757812 120.601562 Z M 33.375 114.113281 C 32.816406 112.558594 32.078125 110.925781 30.828125 109.835938 C 29.730469 111.296875 28.6875 112.800781 27.65625 114.3125 C 28.558594 115.589844 29.464844 116.855469 30.570312 117.972656 C 31.445312 116.710938 32.375 115.390625 33.375 114.113281 Z M 37.761719 109.339844 C 37.03125 107.679688 36.144531 106.113281 35.332031 104.5 C 33.929688 105.917969 32.652344 107.425781 31.445312 109 C 32.703125 110.078125 33.507812 111.621094 34.117188 113.175781 C 35.246094 111.792969 36.453125 110.484375 37.761719 109.339844 Z M 44.144531 105.742188 C 43.378906 103.914062 42.609375 102.09375 41.703125 100.324219 C 39.648438 100.976562 37.769531 102.191406 36.117188 103.738281 C 36.117188 103.742188 36.117188 103.742188 36.117188 103.742188 C 36.921875 105.386719 37.828125 106.984375 38.582031 108.65625 C 40.269531 107.308594 42.113281 106.273438 44.144531 105.742188 Z M 49.746094 105.515625 C 49.394531 103.742188 49.003906 101.96875 48.273438 100.316406 C 47.890625 100.1875 47.488281 100.074219 47.058594 99.996094 C 45.558594 99.707031 44.105469 99.753906 42.722656 100.046875 C 43.625 101.835938 44.394531 103.679688 45.15625 105.519531 C 45.171875 105.519531 45.183594 105.519531 45.195312 105.515625 C 46.707031 105.269531 48.25 105.273438 49.746094 105.515625 Z M 54.890625 107.472656 C 54.589844 106.535156 54.335938 105.578125 54.269531 104.597656 C 52.855469 103.140625 51.4375 101.746094 49.585938 100.835938 C 50.167969 102.417969 50.515625 104.074219 50.84375 105.726562 C 52.269531 106.082031 53.632812 106.667969 54.890625 107.472656 Z M 62.296875 114.183594 C 62.085938 112.746094 61.570312 111.359375 61.066406 109.980469 C 60.042969 109.441406 59.070312 108.847656 58.15625 108.183594 C 57.179688 107.488281 56.324219 106.691406 55.507812 105.867188 C 55.710938 106.773438 56.035156 107.65625 56.351562 108.53125 C 57.917969 109.835938 59.203125 111.339844 60.65625 112.789062 C 61.183594 113.296875 61.726562 113.761719 62.296875 114.183594 Z M 68.195312 117.214844 C 68.464844 117.308594 68.738281 117.40625 69.011719 117.503906 C 68.367188 115.828125 67.832031 114.113281 67.085938 112.476562 C 65.496094 111.96875 63.910156 111.371094 62.394531 110.648438 C 62.890625 112.050781 63.324219 113.46875 63.40625 114.941406 C 64.894531 115.875 66.511719 116.585938 68.195312 117.214844 Z M 74.277344 83.957031 C 74.148438 81.425781 74.195312 78.886719 74.398438 76.382812 C 73.074219 76 71.769531 75.488281 70.414062 75.25 C 70.308594 77.851562 70.398438 80.484375 70.675781 83.070312 C 71.863281 83.425781 73.078125 83.648438 74.277344 83.957031 Z M 75.496094 92.867188 C 74.910156 90.296875 74.535156 87.683594 74.347656 85.050781 C 73.175781 84.71875 71.980469 84.503906 70.816406 84.179688 C 71.15625 86.871094 71.703125 89.492188 72.445312 91.945312 C 72.492188 92.125 72.554688 92.300781 72.621094 92.472656 C 73.589844 92.449219 74.558594 92.59375 75.496094 92.867188 Z M 74.589844 74.425781 C 74.84375 72.210938 75.210938 69.96875 75.667969 67.726562 C 74.3125 67.25 72.878906 67.105469 71.460938 66.894531 C 70.945312 69.242188 70.605469 71.707031 70.460938 74.222656 C 71.84375 74.464844 73.148438 74.9375 74.496094 75.332031 C 74.523438 75.027344 74.554688 74.722656 74.589844 74.425781 Z M 77.121094 119.71875 C 76.492188 117.777344 75.621094 115.925781 75.015625 113.984375 C 73.429688 113.921875 71.863281 113.761719 70.308594 113.378906 C 69.671875 113.226562 69.019531 113.050781 68.371094 112.863281 C 69.0625 114.535156 69.609375 116.265625 70.289062 117.945312 C 72.492188 118.683594 74.796875 119.316406 77.121094 119.71875 Z M 75.882812 66.710938 C 76.394531 64.414062 77.015625 62.117188 77.742188 59.855469 C 76.484375 59.535156 75.210938 59.222656 73.960938 58.855469 C 73.257812 60.671875 72.636719 62.503906 72.101562 64.335938 C 71.957031 64.84375 71.816406 65.359375 71.6875 65.882812 C 73.101562 66.097656 74.535156 66.242188 75.882812 66.710938 Z M 78.078125 58.875 C 78.679688 57.089844 79.359375 55.339844 80.113281 53.621094 C 78.972656 53.296875 77.824219 53.007812 76.710938 52.59375 C 75.847656 54.332031 75.054688 56.097656 74.34375 57.886719 C 75.574219 58.246094 76.828125 58.554688 78.078125 58.875 Z M 79.609375 104.253906 C 79.757812 104.398438 79.914062 104.535156 80.074219 104.675781 C 78.148438 101.367188 76.734375 97.773438 75.78125 94.039062 C 74.863281 93.734375 73.921875 93.539062 72.957031 93.511719 C 74.375 97.550781 76.46875 101.261719 79.609375 104.253906 Z M 84.074219 46.109375 C 82.886719 45.953125 81.300781 45.914062 80.503906 45.898438 C 79.3125 47.761719 78.207031 49.691406 77.183594 51.667969 C 78.289062 52.054688 79.417969 52.339844 80.542969 52.664062 C 81.578125 50.402344 82.757812 48.207031 84.074219 46.109375 Z M 85.019531 120.011719 C 85.152344 119.992188 85.28125 119.972656 85.410156 119.953125 C 84.8125 117.847656 84.121094 115.777344 83.042969 113.863281 C 80.730469 113.886719 78.410156 114.03125 76.113281 114.007812 C 76.757812 116 77.667969 117.890625 78.261719 119.894531 C 80.519531 120.214844 82.800781 120.296875 85.019531 120.011719 Z M 88.359375 40.25 C 87.265625 39.984375 86.15625 39.828125 85.054688 39.613281 C 83.6875 41.285156 82.394531 43.035156 81.175781 44.867188 C 82.496094 44.875 83.515625 44.949219 84.671875 45.171875 C 85.800781 43.449219 87.027344 41.800781 88.359375 40.25 Z M 86.433594 119.792969 C 87.746094 119.566406 89.050781 119.269531 90.351562 118.996094 C 89.355469 117.203125 88.210938 115.535156 86.835938 114.007812 C 86.570312 113.984375 86.292969 113.960938 86.023438 113.941406 C 85.425781 113.9375 84.824219 113.957031 84.222656 113.875 C 85.207031 115.75 85.863281 117.753906 86.433594 119.792969 Z M 93.628906 35.074219 C 92.988281 34.859375 92.351562 34.667969 91.683594 34.519531 C 89.488281 35.691406 87.339844 37.0625 85.820312 38.707031 C 86.925781 38.910156 88.035156 39.089844 89.121094 39.382812 C 90.515625 37.835938 92.015625 36.398438 93.628906 35.074219 Z M 94.859375 118.347656 C 95.144531 118.339844 95.429688 118.324219 95.707031 118.3125 C 93.320312 117.507812 91.039062 116.347656 88.929688 114.796875 C 88.871094 114.753906 88.808594 114.714844 88.734375 114.671875 C 89.746094 115.960938 90.632812 117.339844 91.417969 118.792969 C 92.5625 118.578125 93.707031 118.40625 94.859375 118.347656 Z M 99.410156 31.148438 C 99.429688 31.132812 99.449219 31.125 99.472656 31.109375 C 99.433594 31.089844 99.410156 31.058594 99.390625 31.035156 C 98.320312 31.398438 97.257812 31.808594 96.238281 32.292969 C 95.253906 32.753906 94.175781 33.253906 93.078125 33.8125 C 93.519531 33.929688 93.957031 34.078125 94.402344 34.234375 C 94.464844 34.253906 94.515625 34.292969 94.566406 34.332031 C 96.089844 33.164062 97.691406 32.085938 99.410156 31.148438 Z M 111.917969 26.535156 C 111.464844 26.488281 111 26.445312 110.542969 26.4375 C 107.371094 26.371094 104.175781 26.757812 101.109375 27.597656 C 95.429688 29.15625 89.839844 31.710938 85.347656 35.617188 C 76.710938 43.140625 71.09375 54.214844 68.78125 65.351562 C 66.277344 77.421875 66.511719 90.636719 73.402344 101.316406 C 75.015625 103.808594 76.859375 106.230469 79.148438 108.164062 C 80.730469 109.503906 83.144531 111.953125 85.402344 111.703125 C 84.09375 110.378906 82.917969 108.957031 81.855469 107.457031 C 79.648438 105.550781 77.289062 103.742188 75.703125 101.324219 C 73.230469 97.574219 71.507812 93.480469 70.6875 89.042969 C 69.820312 84.347656 69.347656 79.535156 69.515625 74.757812 C 69.476562 74.628906 69.484375 74.484375 69.53125 74.367188 C 69.652344 71.65625 69.980469 68.960938 70.5625 66.3125 C 70.574219 66.265625 70.585938 66.214844 70.601562 66.167969 C 70.933594 64.6875 71.34375 63.21875 71.851562 61.777344 C 73.402344 57.378906 75.230469 53.074219 77.546875 49.027344 C 79.707031 45.253906 82.109375 40.523438 85.460938 37.644531 C 91.175781 32.734375 98.0625 30.261719 105.179688 28.480469 C 107.375 27.652344 109.640625 26.992188 111.917969 26.535156 Z M 117.539062 115.34375 C 146.769531 103.660156 153.824219 62.640625 138.355469 37.691406 C 134.066406 31.261719 127.492188 28.214844 120.40625 27.816406 C 120.351562 27.828125 120.292969 27.832031 120.242188 27.832031 C 119.871094 27.828125 119.496094 27.808594 119.132812 27.769531 C 116.105469 27.746094 112.996094 28.179688 109.960938 29.035156 C 99.253906 32.042969 90.8125 38.867188 85.183594 48.449219 C 76.46875 63.28125 72.5625 83.917969 80.058594 100.078125 C 82.167969 104.625 85.140625 109.070312 89.050781 112.308594 C 89.121094 112.355469 89.183594 112.402344 89.242188 112.464844 C 89.460938 112.644531 89.6875 112.824219 89.921875 113 C 92.070312 114.574219 93.996094 115.605469 96.660156 116.285156 C 96.914062 116.347656 97.09375 116.480469 97.210938 116.648438 C 103.808594 118.539062 111.203125 117.867188 117.539062 115.34375 Z M 140.148438 36.652344 C 155.199219 60.9375 149.839844 99.355469 123.988281 114.46875 C 118.179688 117.855469 111.203125 119.890625 104.402344 119.769531 C 104.320312 119.808594 104.230469 119.832031 104.132812 119.84375 C 100.347656 120.332031 96.425781 119.976562 92.664062 120.683594 C 89.769531 121.230469 86.753906 122.195312 83.78125 122.167969 C 78.578125 122.109375 73.523438 121.375 68.628906 119.574219 C 63.871094 117.8125 60.734375 115.652344 57.203125 112.070312 C 53.570312 108.390625 48.191406 105.804688 43.160156 108.367188 C 35.492188 112.265625 31.292969 120.945312 26.308594 127.578125 C 24.003906 130.648438 21.484375 133.582031 17.511719 134.230469 C 12.707031 135.015625 8.828125 130.691406 4.132812 130.539062 C 3.730469 130.527344 3.449219 130.324219 3.289062 130.050781 C 3.230469 129.984375 3.171875 129.902344 3.125 129.800781 C 2.035156 127.332031 0.890625 124.820312 0.269531 122.1875 C 0.140625 121.664062 0.398438 121.265625 0.761719 121.054688 C 0.917969 120.941406 1.125 120.867188 1.371094 120.878906 C 3.269531 120.941406 5.027344 121.328125 6.75 122.144531 C 9.195312 123.3125 12.21875 125.324219 15.070312 124.507812 C 19.496094 123.21875 22.144531 118.542969 24.640625 114.976562 C 28.488281 109.460938 32.476562 102.484375 38.691406 99.332031 C 45.75 95.738281 52.246094 98.953125 57.207031 104.421875 C 60.898438 108.5 67.617188 111.339844 73.101562 111.71875 C 75.546875 111.886719 77.988281 111.824219 80.429688 111.789062 C 76.648438 108.972656 73.367188 105.535156 71.03125 101.382812 C 64.730469 90.183594 63.992188 77.195312 66.789062 64.808594 C 69.464844 52.957031 75.246094 41.222656 84.769531 33.429688 C 89.28125 29.746094 94.902344 26.976562 100.558594 25.597656 C 103.695312 24.839844 107.292969 24.03125 110.542969 24.367188 C 113.800781 24.707031 116.945312 25.730469 120.242188 25.761719 C 120.417969 25.761719 120.570312 25.804688 120.699219 25.875 C 128.269531 26.292969 135.363281 29.480469 140.148438 36.652344 " fill-opacity="1" fill-rule="nonzero"/></g><path fill="#000000" d="M 128.375 59.78125 C 131.957031 57.195312 134.6875 52.410156 134.027344 47.890625 C 133.019531 43.371094 129.414062 40.046875 124.746094 42.492188 C 120.835938 44.53125 118.464844 48.550781 118.296875 52.972656 C 118.179688 55.992188 118.898438 59.265625 122.003906 60.574219 C 124.167969 61.492188 126.476562 61.15625 128.375 59.78125 Z M 136.042969 47.601562 C 136.777344 53.585938 133.0625 60.199219 127.507812 62.570312 C 121.605469 65.09375 115.96875 59.796875 116.195312 53.847656 C 116.410156 48.132812 119.199219 41.917969 125.09375 40.125 C 130.652344 38.433594 134.679688 41.804688 135.953125 47.109375 C 135.980469 47.175781 136 47.253906 136.015625 47.339844 C 136.035156 47.433594 136.042969 47.519531 136.042969 47.601562 " fill-opacity="1" fill-rule="nonzero"/><path fill="#000000" d="M 129.308594 97.253906 C 130.210938 93.398438 128.753906 89.957031 124.734375 88.847656 C 121.820312 88.054688 117.96875 88.167969 115.585938 90.296875 C 112.042969 93.460938 113.023438 99.351562 115.667969 102.84375 C 120.789062 109.609375 127.359375 103.027344 129.308594 97.253906 Z M 125.285156 86.855469 C 130.261719 88.496094 132.421875 92.511719 131.355469 97.53125 C 131.34375 97.621094 131.328125 97.710938 131.296875 97.800781 C 131.277344 97.886719 131.246094 97.964844 131.214844 98.042969 C 129.410156 103.046875 123.050781 111.261719 117.007812 106.964844 C 112.191406 103.542969 109.109375 95.457031 112.84375 90.199219 C 115.453125 86.519531 121.191406 85.507812 125.285156 86.855469 " fill-opacity="1" fill-rule="nonzero"/><path fill="#000000" d="M 128.089844 34.085938 C 128.683594 34.554688 128.984375 34.84375 128.9375 34.90625 C 128.882812 34.964844 128.5 34.8125 127.851562 34.464844 C 127.214844 34.105469 126.261719 33.640625 125.070312 33.125 C 124.464844 32.898438 123.820312 32.601562 123.082031 32.398438 C 122.722656 32.292969 122.347656 32.164062 121.964844 32.054688 C 121.566406 31.972656 121.164062 31.878906 120.742188 31.785156 C 119.078125 31.457031 117.210938 31.277344 115.246094 31.363281 C 111.304688 31.566406 107.855469 32.714844 105.4375 33.671875 C 103.023438 34.640625 101.550781 35.414062 101.460938 35.25 C 101.40625 35.125 102.695312 34.125 105.097656 32.917969 C 107.484375 31.746094 111.042969 30.414062 115.1875 30.199219 C 117.257812 30.109375 119.230469 30.332031 120.980469 30.738281 C 121.414062 30.855469 121.832031 30.964844 122.238281 31.074219 C 122.644531 31.199219 123.03125 31.351562 123.402344 31.492188 C 124.160156 31.738281 124.804688 32.097656 125.417969 32.378906 C 126.605469 33.011719 127.523438 33.601562 128.089844 34.085938 " fill-opacity="1" fill-rule="nonzero"/><path fill="#000000" d="M 118.394531 74.414062 C 118.410156 74 118.402344 72.824219 117.808594 72.738281 C 117.136719 72.640625 116.453125 74.105469 116.292969 74.574219 C 116.164062 74.945312 116 75.425781 116.148438 75.820312 C 116.292969 76.175781 116.765625 76.144531 117.105469 76.113281 C 117.933594 75.953125 118.355469 75.226562 118.394531 74.414062 Z M 117.863281 71.707031 C 119.0625 71.757812 119.472656 73.324219 119.425781 74.289062 C 119.363281 75.574219 118.730469 76.875 117.359375 77.113281 C 117.332031 77.117188 117.3125 77.113281 117.28125 77.113281 C 117.261719 77.117188 117.25 77.125 117.226562 77.132812 C 115.503906 77.320312 114.707031 76 115.25 74.433594 C 115.621094 73.351562 116.507812 71.660156 117.863281 71.707031 " fill-opacity="1" fill-rule="nonzero"/><path fill="#000000" d="M 109.8125 84.628906 C 120.148438 87.617188 125.78125 69.546875 117.117188 64.585938 C 106.242188 58.34375 100.25 80.167969 109.8125 84.628906 Z M 117.113281 62.910156 C 127.417969 68.820312 122.050781 89.738281 109.382812 86.019531 C 109.335938 86.007812 109.304688 85.976562 109.269531 85.957031 C 109.242188 85.953125 109.230469 85.953125 109.210938 85.945312 C 103.863281 83.578125 102.816406 76.066406 104.105469 70.953125 C 105.417969 65.746094 111.160156 59.503906 117.113281 62.910156 " fill-opacity="1" fill-rule="nonzero"/><path fill="#000000" d="M 112.09375 68.734375 C 113.507812 70.191406 115.605469 67.871094 114.707031 66.351562 C 113.605469 64.835938 110.816406 67.402344 112.09375 68.734375 Z M 115.605469 65.828125 C 116.371094 67.121094 115.859375 68.753906 114.71875 69.652344 C 113.667969 70.484375 111.980469 70.414062 111.1875 69.238281 C 109.5 66.710938 113.460938 63.371094 115.453125 65.664062 C 115.507812 65.703125 115.558594 65.753906 115.605469 65.828125 " fill-opacity="1" fill-rule="nonzero"/><path fill="#000000" d="M 112.121094 82.734375 C 114.011719 82.777344 114.382812 78.765625 112.832031 78.953125 C 111.941406 79.058594 111.347656 79.839844 111.21875 80.675781 C 111.082031 81.507812 111.191406 82.519531 112.121094 82.734375 Z M 113.09375 77.917969 C 116.066406 78.054688 115.003906 83.992188 112.058594 83.773438 C 112.027344 83.773438 112.007812 83.757812 111.980469 83.75 C 111.960938 83.75 111.941406 83.757812 111.917969 83.757812 C 110.289062 83.472656 109.917969 81.636719 110.242188 80.25 C 110.554688 78.953125 111.703125 77.851562 113.09375 77.917969 " fill-opacity="1" fill-rule="nonzero"/><path fill="#000000" d="M 111.191406 111.941406 C 111.21875 112.015625 110.8125 112.1875 110.039062 112.453125 C 109.273438 112.742188 108.125 112.972656 106.675781 113.167969 C 105.957031 113.230469 105.152344 113.332031 104.3125 113.347656 C 103.890625 113.371094 103.457031 113.378906 103.007812 113.394531 C 102.550781 113.390625 102.074219 113.375 101.589844 113.371094 C 99.664062 113.277344 97.523438 112.9375 95.414062 112.105469 C 93.304688 111.277344 91.503906 110.019531 90.085938 108.699219 C 88.652344 107.386719 87.582031 106.003906 86.746094 104.824219 C 85.105469 102.421875 84.382812 100.792969 84.5 100.71875 C 84.652344 100.625 85.644531 102.113281 87.398438 104.328125 C 88.300781 105.421875 89.40625 106.695312 90.796875 107.902344 C 92.191406 109.113281 93.875 110.246094 95.839844 111.019531 C 99.785156 112.582031 103.808594 112.410156 106.613281 112.347656 C 108.011719 112.265625 109.15625 112.152344 109.933594 112.007812 C 110.71875 111.890625 111.175781 111.859375 111.191406 111.941406 " fill-opacity="1" fill-rule="nonzero"/><path fill="#000000" d="M 107.957031 75.613281 C 108.964844 76.113281 109.644531 74.863281 109.640625 74.007812 C 109.640625 73.234375 109.335938 71.964844 108.414062 71.789062 C 107.335938 71.59375 106.839844 72.707031 106.808594 73.59375 C 106.839844 74.332031 107.261719 75.269531 107.957031 75.613281 Z M 108.308594 70.726562 C 109.835938 70.769531 110.769531 72.660156 110.671875 74.007812 C 110.582031 75.289062 109.714844 77.054688 108.144531 76.753906 C 106.726562 76.488281 105.84375 74.953125 105.773438 73.59375 C 105.835938 72.128906 106.710938 70.6875 108.308594 70.726562 " fill-opacity="1" fill-rule="nonzero"/><path fill="#000000" d="M 105.9375 100.347656 C 107.222656 96.816406 106.851562 91.445312 103.910156 88.777344 C 98.925781 84.242188 91.210938 90.730469 90.957031 96.316406 C 90.765625 100.289062 92.5 104.859375 96.847656 105.773438 C 101.074219 106.65625 104.164062 103.933594 105.9375 100.347656 Z M 104.128906 86.296875 C 108.460938 89.507812 109.761719 96.09375 107.886719 101.03125 C 107.875 101.0625 107.855469 101.09375 107.835938 101.125 C 107.820312 101.175781 107.804688 101.222656 107.785156 101.273438 C 105.417969 106.164062 100.601562 109.40625 95.160156 107.390625 C 90.21875 105.5625 87.65625 99.179688 89.199219 94.257812 C 90.855469 88.980469 98.347656 82.019531 104.128906 86.296875 " fill-opacity="1" fill-rule="nonzero"/><path fill="#000000" d="M 100.675781 62.121094 C 109.8125 62.074219 113.683594 47.695312 105.648438 43.105469 C 100.101562 39.929688 92.148438 43.792969 92.03125 50.457031 C 91.925781 56.015625 94.574219 61.589844 100.675781 62.121094 Z M 104.828125 40.394531 C 116.777344 44.195312 112.738281 63.785156 100.972656 64.183594 C 100.882812 64.191406 100.785156 64.207031 100.675781 64.191406 C 100.566406 64.191406 100.472656 64.183594 100.378906 64.152344 C 93.097656 63.34375 89.46875 56.597656 90.023438 49.652344 C 90.589844 42.609375 98.410156 38.351562 104.828125 40.394531 " fill-opacity="1" fill-rule="nonzero"/><path fill="#000000" d="M 99.949219 77.710938 C 102.441406 70.074219 91.96875 63.136719 85.632812 68.023438 C 80.851562 71.695312 79.996094 83.339844 88.074219 83.164062 C 92.628906 83.0625 97.808594 82.25 99.949219 77.710938 Z M 82.476562 68.285156 C 89.378906 59.523438 105.644531 67.429688 101.914062 78.367188 C 101.894531 78.4375 101.867188 78.488281 101.832031 78.546875 C 101.828125 78.566406 101.816406 78.597656 101.8125 78.617188 C 100.519531 81.488281 98.039062 83.421875 95.019531 84.277344 C 92.308594 85.039062 87.976562 86.050781 85.253906 84.902344 C 78.859375 82.214844 78.519531 73.292969 82.476562 68.285156 " fill-opacity="1" fill-rule="nonzero"/><path fill="#000000" d="M 87.347656 50.261719 C 87.476562 50.386719 86.917969 51.136719 86.230469 52.441406 C 85.875 53.082031 85.511719 53.890625 85.15625 54.792969 C 84.777344 55.699219 84.496094 56.714844 84.109375 57.839844 C 83.296875 60.058594 82.40625 61.898438 81.933594 63.3125 C 81.441406 64.65625 81.324219 65.636719 81.144531 65.613281 C 81.011719 65.601562 80.816406 64.675781 81.140625 63.09375 C 81.429688 61.566406 82.234375 59.570312 83.007812 57.453125 C 83.378906 56.394531 83.722656 55.292969 84.171875 54.375 C 84.605469 53.441406 85.058594 52.628906 85.527344 52 C 86.449219 50.738281 87.246094 50.164062 87.347656 50.261719 " fill-opacity="1" fill-rule="nonzero"/><path fill="#000000" d="M 80.980469 94.585938 C 81.285156 95.660156 81.289062 96.378906 81.140625 96.414062 C 80.980469 96.441406 80.695312 95.839844 80.214844 94.875 C 79.972656 94.382812 79.6875 93.796875 79.421875 93.09375 C 79.359375 92.914062 79.300781 92.734375 79.238281 92.546875 C 79.183594 92.34375 79.132812 92.136719 79.082031 91.929688 C 79.019531 91.707031 79.011719 91.527344 78.96875 91.320312 C 78.953125 91.207031 78.941406 91.15625 78.929688 90.988281 L 78.921875 90.671875 C 78.796875 87.257812 79.210938 84.601562 79.503906 84.589844 C 79.851562 84.589844 79.964844 87.339844 80.078125 90.589844 L 80.085938 90.894531 C 80.085938 90.925781 80.109375 91.078125 80.117188 91.160156 C 80.148438 91.355469 80.160156 91.585938 80.203125 91.738281 C 80.238281 91.914062 80.273438 92.085938 80.304688 92.25 C 80.355469 92.425781 80.402344 92.59375 80.441406 92.765625 C 80.640625 93.429688 80.835938 94.046875 80.980469 94.585938 " fill-opacity="1" fill-rule="nonzero"/></svg>